<?xml version="1.0" encoding="utf-8"?>
<!-- Generator: Adobe Illustrator 28.1.0, SVG Export Plug-In . SVG Version: 6.00 Build 0)  -->
<svg version="1.1" id="Components" xmlns="http://www.w3.org/2000/svg" xmlns:xlink="http://www.w3.org/1999/xlink" x="0px" y="0px"
	 viewBox="0 0 25.5 32.8" style="enable-background:new 0 0 25.5 32.8;" xml:space="preserve">
<style type="text/css">
	.st0{fill:#D6B66E;}
</style>
<g id="_x35_f423490-c7ca-4126-b1b1-830b014b651f_x40_1">
	<path class="st0" d="M25.4,11.2l-0.1-0.6l-5,2.6c0,0,0-0.1,0-0.1c0-0.7-0.1-1.5-0.3-2.1l4.7-2.5l-0.1-0.3c-0.9-2.4-2.5-4.4-4.6-5.8
		C17.9,0.8,15.4,0,12.7,0S7.7,0.8,5.6,2.2C3.5,3.6,1.9,5.6,0.9,7.9L0.8,8.3l4.7,2.6c-0.2,0.7-0.3,1.4-0.3,2.2c0,0,0,0,0,0l-5-2.6
		l-0.1,0.6C0,11.7,0,12.2,0,12.7c0,1.6,0.7,3.7,2,6.1c1,1.9,2.5,4.1,4.3,6.4c3.1,4,6.2,7.2,6.2,7.2l0.3,0.3l0.3-0.3
		c0,0,3.8-3.9,7.1-8.4c3.6-4.8,5.4-8.7,5.4-11.3C25.5,12.2,25.5,11.7,25.4,11.2L25.4,11.2z M19.5,13.1c0,1.9-0.8,3.6-2.1,4.9
		l-0.1,0.1v1.7c0,0.7-0.3,1.4-0.8,1.9l-2.8-1.5l0.8-0.4c0.7-0.4,1.2-1.2,1.2-2.1l-0.2-3.5c0-0.5,0.3-1.1,0.8-1.3l3.1-1.7
		C19.4,11.9,19.5,12.5,19.5,13.1L19.5,13.1z M8.1,18c-1.4-1.3-2.1-3-2.1-4.9c0-0.6,0.1-1.2,0.2-1.8L9.4,13c0.5,0.3,0.8,0.8,0.7,1.3
		L10,17.8c0,0.8,0.4,1.7,1.2,2.1l0.8,0.4l-2.8,1.5c-0.5-0.5-0.9-1.2-0.9-2v-1.7L8.1,18L8.1,18z M14.6,14.3l0.2,3.5
		c0,0.5-0.3,1-0.7,1.3l-1.2,0.7l-1.2-0.7c-0.5-0.3-0.8-0.8-0.7-1.3l0.2-3.5c0-0.8-0.4-1.7-1.2-2.1l-3.3-1.8c1-2.4,3.4-4.2,6.3-4.2
		S18,8.1,19,10.5l-3.2,1.7C15,12.7,14.6,13.5,14.6,14.3L14.6,14.3z M12.8,20.7l2.9,1.6l-1.5,0.9c-0.9,0.5-1.9,0.5-2.8,0l-1.5-0.9
		L12.8,20.7z M1.8,7.9c0.9-2,2.3-3.7,4.2-5c2-1.4,4.3-2.1,6.7-2.1s4.8,0.7,6.8,2.1c1.9,1.3,3.3,3,4.2,5.1l-4,2.1
		c-1.1-2.7-3.9-4.7-7-4.7s-5.8,1.9-7,4.6L1.8,7.9L1.8,7.9z M0.8,12.7c0-0.3,0-0.6,0-0.9l4.4,2.2c0.2,1.7,1,3.2,2.2,4.4v1.3
		c0,0.9,0.3,1.7,0.9,2.4L6,23.5C2.6,18.9,0.8,15.2,0.8,12.7L0.8,12.7z M12.7,31.6c-0.8-0.9-3.4-3.6-5.8-6.8
		c-0.1-0.2-0.3-0.4-0.4-0.6L9,22.7c0.1,0,0.1,0.1,0.2,0.1l1.8,1c0.6,0.3,1.2,0.5,1.8,0.5c0.6,0,1.3-0.2,1.8-0.5l1.8-1
		c0.1,0,0.1-0.1,0.2-0.1l2.6,1.3C16.5,27.6,13.6,30.6,12.7,31.6L12.7,31.6z M23.1,17.9c-0.8,1.6-2,3.5-3.4,5.5l-2.5-1.2
		c0.6-0.6,0.9-1.5,0.9-2.3v-1.3c1.2-1.2,2-2.7,2.2-4.3l4.4-2.2c0,0.3,0,0.6,0,0.9C24.7,14.1,24.1,15.8,23.1,17.9L23.1,17.9z"/>
</g>
</svg>
